<svg xmlns="http://www.w3.org/2000/svg" viewBox="0 0 1920 1080"><defs><style>.a{fill:#f9dea7;}</style></defs><title>thelumineers</title><path class="a" d="M.5,1079.5V.5h1919v1079ZM1336,883h353V845.92l-.57.09a167.47,167.47,0,0,1-24.28,1.91c-25.05,0-43.94-7.07-56.15-21-19-21.72-15-53-15-53.33,0-4.35-4-428.75,0-489,3.13-47.72,60.62-52.88,85.2-52.88,6.23,0,10.22.34,10.26.35l.54.05V197H1336v35.05l.54-.05s4-.35,10.26-.35c24.58,0,82.07,5.16,85.2,52.88,4,60.29,0,484.69,0,489,0,.38,4,31.67-15,53.39-12.2,14-31.1,21-56.16,21a167.47,167.47,0,0,1-24.28-1.91l-.57-.09Zm-544,0h353V845.92l-.57.09a167.47,167.47,0,0,1-24.28,1.91c-25.05,0-43.94-7.07-56.15-21-19-21.72-15-53-15-53.33,0-4.35-4-428.75,0-489,3.13-47.72,60.62-52.88,85.2-52.88,6.23,0,10.22.34,10.26.35l.54.05V197H792v35.05l.54-.05s4-.35,10.26-.35c24.58,0,82.07,5.16,85.2,52.88,4,60.29,0,484.69,0,489,0,.38,4,31.67-15,53.39-12.2,14-31.1,21-56.16,21A167.47,167.47,0,0,1,792.57,846l-.57-.09Zm-544,0H601V845.92l-.57.09a167.47,167.47,0,0,1-24.28,1.91c-25,0-43.94-7.07-56.15-21-19-21.72-15.05-53-15-53.33,0-4.35-3.95-428.75,0-489,3.13-47.72,60.62-52.88,85.2-52.88,6.23,0,10.22.34,10.26.35l.54.05V197H248v35.05l.54-.05s4-.35,10.26-.35c24.58,0,82.07,5.16,85.2,52.88,3.95,60.29,0,484.69,0,489,.05.38,4,31.67-15,53.39-12.2,14-31.1,21-56.16,21A167.47,167.47,0,0,1,248.57,846l-.57-.09Z"/><path class="a" d="M1919,1V1079H1V1H1919M1335.5,232.59l1.09-.09s4-.35,10.21-.35c24.44,0,81.6,5.11,84.7,52.42,4,60.26,0,484.64,0,488.92v.14c0,.31,4,31.37-14.87,52.93-12.1,13.84-30.88,20.86-55.79,20.86a166.31,166.31,0,0,1-24.2-1.91l-1.15-.17V883.5h354V845.34l-1.15.17a166.31,166.31,0,0,1-24.2,1.91c-24.9,0-43.66-7-55.77-20.84-18.85-21.55-14.93-52.64-14.89-53v-.14c0-4.28-4-428.66,0-488.92,3.1-47.31,60.26-52.42,84.7-52.42,6.2,0,10.17.34,10.21.35l1.09.09V196.5h-354v36.09m-544,0,1.09-.09s4-.35,10.21-.35c24.44,0,81.6,5.11,84.7,52.42,4,60.26,0,484.64,0,488.92v.14c0,.31,4,31.37-14.87,52.93-12.1,13.84-30.88,20.86-55.79,20.86a166.31,166.31,0,0,1-24.2-1.91l-1.15-.17V883.5h354V845.34l-1.15.17a166.31,166.31,0,0,1-24.2,1.91c-24.9,0-43.66-7-55.77-20.84-18.85-21.55-14.93-52.64-14.89-53v-.14c0-4.28-4-428.66,0-488.92,3.1-47.31,60.26-52.42,84.7-52.42,6.2,0,10.17.34,10.21.35l1.09.09V196.5h-354v36.09m-544,0,1.09-.09s4-.35,10.21-.35c24.44,0,81.6,5.11,84.7,52.42,3.95,60.26,0,484.64,0,488.92v.14c0,.31,4,31.37-14.87,52.93-12.1,13.84-30.88,20.86-55.79,20.86a166.31,166.31,0,0,1-24.2-1.91l-1.15-.17V883.5h354V845.34l-1.15.17a166.31,166.31,0,0,1-24.2,1.91c-24.9,0-43.66-7-55.77-20.84-18.85-21.55-14.93-52.64-14.89-53v-.14c0-4.28-3.95-428.66,0-488.92,3.1-47.31,60.26-52.42,84.7-52.42,6.2,0,10.17.34,10.21.35l1.09.09V196.5h-354v36.09M1920,0H0V1080H1920V0ZM1336.5,231.5v-34h352v34s-4-.35-10.3-.35c-24.13,0-82.53,5-85.7,53.35-4,61,0,489,0,489s-10.09,74.92,71.65,74.92a166.34,166.34,0,0,0,24.35-1.92v36h-352v-36a166.45,166.45,0,0,0,24.35,1.92c81.76,0,71.65-74.92,71.65-74.92s4-428,0-489c-3.17-48.32-61.56-53.35-85.7-53.35-6.33,0-10.3.35-10.3.35Zm-544,0v-34h352v34s-4-.35-10.3-.35c-24.13,0-82.53,5-85.7,53.35-4,61,0,489,0,489s-10.09,74.92,71.65,74.92a166.34,166.34,0,0,0,24.35-1.92v36h-352v-36a166.45,166.45,0,0,0,24.35,1.92c81.76,0,71.65-74.92,71.65-74.92s4-428,0-489c-3.17-48.32-61.56-53.35-85.7-53.35-6.33,0-10.3.35-10.3.35Zm-544,0v-34h352v34s-4-.35-10.3-.35c-24.13,0-82.53,5-85.7,53.35-4,61,0,489,0,489s-10.09,74.92,71.65,74.92a166.34,166.34,0,0,0,24.35-1.92v36h-352v-36a166.45,166.45,0,0,0,24.35,1.92c81.76,0,71.65-74.92,71.65-74.92s4-428,0-489c-3.17-48.32-61.56-53.35-85.7-53.35-6.33,0-10.3.35-10.3.35Z"/></svg>