<svg xmlns="http://www.w3.org/2000/svg" viewBox="0 0 450 450">
  <title>tlms-vinil</title>
  <g>
    <circle cx="225" cy="225" r="225" style="fill: #191919"/>
    <g>
      <circle cx="250.5" cy="250.5" r="88.3" transform="translate(-128.26 226) rotate(-45)" style="fill: #f9dea7"/>
      <path d="M250.5,163.2a87.3,87.3,0,1,1-87.3,87.3,87.4,87.4,0,0,1,87.3-87.3m0-2a89.3,89.3,0,1,0,89.3,89.3,89.3,89.3,0,0,0-89.3-89.3Z" transform="translate(-24.5 -24.5)"/>
    </g>
    <path d="M101.27,408.86a242,242,0,0,0,70.83,42.93c4.5,1.74,8.84,1.1,10.38-3.47l34.41-102.65a8.46,8.46,0,0,0-4.71-10.49c-5.6-2.36-13.39-6.29-19.67-11.82a8.5,8.5,0,0,0-11.32,0l-80.6,72.79C96.84,399.57,97.49,405.51,101.27,408.86Z" transform="translate(-24.5 -24.5)" style="fill: #999"/>
    <path d="M405.73,98.62c-8.06-11.26-43-44.19-84.8-53.9-4.7-1.09-8.85-1.1-10.38,3.47L276.13,150.84c-1.4,4.2.73,9.63,4.8,11.35,5.6,2.37,29.27,16.4,35.55,21.93a8.48,8.48,0,0,0,11.32,0l78.6-72.79C410.15,107.92,408.66,102.73,405.73,98.62Z" transform="translate(-24.5 -24.5)" style="fill: #999"/>
  </g>
  <text transform="translate(207.52 216.28)" style="font-size: 24px;fill: #333;font-family: Cambria-Bold, Cambria;font-weight: 700">The <tspan x="-38.06" y="28.8">Lumineers</tspan></text>
</svg>
